<?xml version="1.0" standalone="no"?>
<!DOCTYPE svg PUBLIC "-//W3C//DTD SVG 20010904//EN"
 "http://www.w3.org/TR/2001/REC-SVG-20010904/DTD/svg10.dtd">
<svg version="1.0" xmlns="http://www.w3.org/2000/svg"
 width="490.000000pt" height="490.000000pt" viewBox="0 0 490.000000 490.000000"
 preserveAspectRatio="xMidYMid meet">

<g transform="translate(0.000000,490.000000) scale(0.100000,-0.100000)"
fill="#000000" stroke="none">
<path d="M2356 4669 c-14 -17 -33 -56 -42 -87 -9 -31 -21 -63 -26 -70 -16 -19
-4 -113 21 -165 13 -26 21 -51 19 -56 -5 -15 -85 -98 -100 -104 -9 -4 -7 -6 5
-6 9 -1 17 -5 17 -11 0 -5 18 -10 39 -10 22 0 52 -5 67 -10 15 -6 51 -12 80
-13 28 -1 50 -5 48 -9 -2 -3 -37 -19 -77 -33 -39 -15 -84 -39 -99 -53 -24 -22
-30 -23 -59 -13 -18 6 -47 11 -65 11 -62 0 -67 7 -39 54 36 61 34 79 -7 71
-67 -14 -111 -63 -123 -136 -11 -66 16 -97 123 -139 27 -11 33 -18 30 -39 -3
-23 -13 -28 -103 -57 -55 -17 -138 -46 -185 -64 -211 -80 -449 -129 -490 -101
-12 8 -4 19 43 62 32 28 56 54 53 56 -8 9 -74 -18 -80 -32 -3 -8 -20 -17 -39
-20 -29 -6 -38 -14 -57 -56 -43 -90 -25 -138 69 -189 68 -38 176 -65 194 -50
43 36 246 123 232 99 -4 -5 8 -9 24 -9 17 0 31 5 31 10 0 6 7 10 15 10 26 0
102 54 97 69 -3 8 0 11 6 7 6 -3 21 4 34 16 21 21 158 83 158 72 0 -7 -19 -30
-57 -71 -18 -19 -33 -39 -33 -43 0 -4 -7 -10 -15 -14 -8 -3 -15 -13 -15 -22 0
-13 5 -11 25 10 27 30 40 34 31 10 -6 -15 -4 -15 18 0 27 17 72 22 78 7 3 -9
44 -15 87 -13 21 2 23 5 17 40 -14 80 -18 92 -31 92 -8 0 -19 9 -25 19 -8 16
-4 22 25 40 19 11 54 26 77 32 24 7 48 17 55 22 7 5 16 6 21 3 5 -3 46 1 91 9
45 8 87 12 94 9 7 -2 47 -1 90 4 43 5 80 6 82 2 5 -9 74 1 81 11 3 5 15 9 27
9 18 0 19 -2 7 -10 -10 -6 -2 -8 25 -3 22 3 47 12 56 20 9 7 23 11 32 8 16 -7
121 37 132 54 3 6 17 11 30 11 13 0 26 6 29 13 4 8 8 9 11 1 8 -16 98 0 147
26 22 11 44 17 50 14 7 -4 8 -2 4 5 -9 14 31 50 57 51 9 0 17 5 17 10 0 6 10
8 24 4 20 -5 27 0 40 23 8 15 15 21 16 14 0 -11 3 -12 11 -4 6 6 17 9 23 7 6
-2 17 9 24 26 8 16 17 29 20 28 8 -2 82 67 82 77 0 3 12 23 26 45 15 22 28 56
30 74 1 19 18 74 37 122 20 48 34 92 31 96 -11 17 -22 6 -27 -27 -12 -76 -108
-186 -251 -288 -69 -50 -84 -57 -126 -57 -85 0 -359 -78 -588 -166 -62 -24
-116 -44 -121 -44 -5 0 -16 16 -25 35 -20 42 -50 64 -97 71 -29 5 -36 10 -32
25 3 10 14 21 24 24 11 4 17 10 15 13 -2 4 16 16 40 26 24 10 44 21 44 25 0 4
6 8 13 9 6 0 26 5 42 10 24 8 14 9 -47 7 -72 -2 -77 -1 -68 16 6 9 11 46 12
81 1 54 -3 73 -28 117 -16 30 -48 70 -71 90 -24 19 -43 41 -43 48 0 6 -19 28
-42 48 -24 19 -52 49 -63 65 -11 16 -23 30 -27 30 -3 0 -18 -14 -32 -31z m191
-682 c-35 -58 -55 -74 -107 -82 -45 -7 -45 -6 -78 41 l-34 47 55 -7 c64 -7 95
2 146 44 46 39 54 19 18 -43z"/>
<path d="M2485 3747 c5 -36 42 -124 65 -157 12 -16 34 -37 50 -45 33 -17 109
-19 161 -5 21 6 47 7 60 2 33 -11 116 10 97 25 -112 89 -313 186 -409 198 -23
3 -27 0 -24 -18z"/>
<path d="M2396 3517 c-17 -13 -17 -14 7 -30 25 -16 62 -102 48 -111 -22 -14
-147 -56 -166 -56 -36 0 -35 -9 8 -55 54 -57 84 -64 124 -31 37 31 53 33 53 7
0 -27 -70 -83 -94 -77 -39 10 -138 -91 -118 -120 10 -14 93 -44 103 -38 5 3 9
12 9 21 0 10 6 13 16 9 8 -3 24 -1 34 4 22 12 41 -7 20 -20 -6 -4 -12 -10 -11
-13 0 -4 -6 -22 -14 -41 -20 -47 -20 -115 0 -122 21 -9 65 4 62 18 -1 6 18 17
42 24 38 12 46 12 55 -2 10 -13 19 -11 74 17 50 24 72 30 99 26 20 -4 39 -11
42 -16 4 -5 18 -12 33 -15 14 -2 35 -9 45 -14 24 -13 123 -21 123 -11 0 5 7 9
15 9 24 0 19 53 -7 77 -35 32 -181 101 -224 106 -21 3 -49 9 -61 14 -22 8 -21
9 17 33 50 31 55 70 13 97 -16 10 -34 26 -41 35 -17 23 -70 23 -100 2 -30 -21
-34 -15 -20 24 9 23 24 37 59 52 27 11 51 25 54 30 3 6 14 10 23 10 9 0 22 11
29 25 9 20 8 25 -2 25 -7 0 -15 6 -18 13 -2 8 -24 11 -68 10 l-64 -3 -25 48
-25 47 -65 3 c-43 2 -71 -2 -84 -11z m289 -477 c15 -29 20 -48 9 -38 -3 4 -20
1 -37 -7 -56 -22 -107 -28 -107 -11 0 10 100 84 117 86 1 0 9 -13 18 -30z
m-259 -117 c-10 -10 -19 5 -10 18 6 11 8 11 12 0 2 -7 1 -15 -2 -18z"/>
<path d="M1775 3422 c-39 -8 -38 -21 5 -61 23 -21 47 -49 54 -62 12 -24 108
-79 138 -79 22 0 60 20 71 38 4 6 15 12 24 12 13 0 13 3 3 15 -10 12 -10 15 0
15 9 0 7 7 -5 20 -14 15 -15 20 -4 20 20 0 -44 37 -103 61 -49 19 -142 30
-183 21z"/>
<path d="M1953 3172 c28 -61 56 -108 77 -127 25 -23 79 -27 99 -7 12 12 10 22
-16 70 -32 62 -53 76 -125 86 l-47 5 12 -27z"/>
<path d="M2026 2993 c-7 -7 5 -66 15 -77 5 -6 9 -22 9 -36 0 -16 12 -37 30
-55 26 -25 33 -28 50 -17 11 7 26 12 34 12 7 0 20 10 29 23 13 20 13 27 1 56
-8 18 -12 37 -9 41 5 8 -13 17 -52 24 -10 2 -37 11 -60 19 -23 8 -44 12 -47
10z"/>
<path d="M2528 2809 c-27 -4 -64 -17 -84 -29 l-35 -22 -50 26 c-47 26 -75 27
-66 3 2 -7 -22 -64 -54 -127 -32 -63 -62 -127 -65 -142 -6 -25 -3 -28 20 -28
14 0 26 -4 26 -9 0 -17 59 -5 90 18 17 12 33 21 34 19 1 -1 7 -14 12 -28 14
-31 -7 -62 -127 -192 -106 -113 -133 -147 -135 -166 -2 -11 0 -12 9 -3 6 6 17
11 25 11 8 0 45 20 81 44 37 24 103 61 147 81 110 53 146 98 208 262 7 18 19
40 28 50 8 10 32 40 52 66 79 106 22 187 -116 166z m-24 -71 c-3 -13 -21 -50
-38 -82 -31 -59 -55 -72 -47 -26 3 14 5 39 5 57 1 26 6 32 29 37 15 3 30 12
33 21 10 24 26 17 18 -7z"/>
<path d="M2530 2361 c0 -82 -15 -104 -154 -226 -32 -27 -75 -67 -96 -87 -21
-21 -45 -38 -53 -38 -14 0 -71 -68 -112 -133 l-18 -28 28 11 c26 10 27 9 14
-7 -7 -10 -20 -24 -28 -30 -8 -7 -16 -21 -16 -30 -1 -10 -4 -24 -6 -32 -9 -31
21 -19 39 16 24 47 48 68 86 77 16 4 65 28 108 54 66 40 80 53 89 85 14 43 23
46 44 13 15 -23 15 -27 -6 -68 -12 -24 -21 -44 -20 -45 8 -14 -3 -57 -19 -73
-15 -15 -18 -25 -11 -42 4 -13 11 -36 15 -51 6 -25 4 -28 -13 -22 -21 6 -38
-9 -21 -20 18 -11 11 -93 -19 -218 -44 -182 -70 -302 -66 -306 2 -2 12 0 22 4
10 5 21 8 24 7 14 -3 72 67 83 99 7 19 13 57 15 84 3 57 3 57 24 50 24 -10 27
-42 6 -61 -23 -21 -24 -30 -1 -54 13 -14 33 -19 82 -20 36 -1 68 -1 73 -1 4 1
1 14 -8 30 -11 22 -23 31 -47 33 -25 2 -33 8 -33 23 0 17 6 20 43 17 27 -1 56
-11 75 -26 88 -65 169 -88 315 -88 79 0 106 3 115 15 7 8 19 17 27 19 8 3 -4
8 -27 12 -24 4 -43 12 -43 17 0 5 -6 9 -14 9 -25 0 -245 111 -388 196 -75 45
-150 84 -167 87 -17 4 -30 10 -29 14 1 5 -3 17 -9 29 -11 19 -10 21 12 19 18
-2 26 3 34 25 5 16 21 36 35 45 21 14 26 28 32 76 4 33 15 76 25 95 22 45 17
58 -36 89 -45 27 -60 31 -50 15 9 -15 -11 -12 -23 3 -15 18 32 45 92 53 38 6
50 13 66 39 25 40 19 101 -16 160 -13 23 -24 50 -24 61 0 22 -26 64 -41 64 -5
0 -9 -17 -9 -39z m-48 -798 c26 -28 102 -143 95 -143 -25 0 -71 28 -83 51 -18
36 -28 38 -20 3 6 -21 4 -25 -11 -22 -15 3 -19 15 -21 71 -2 37 1 67 6 67 4 0
20 -12 34 -27z"/>
<path d="M2142 2239 c-13 -16 -20 -29 -15 -29 9 1 47 50 41 54 -1 2 -13 -10
-26 -25z"/>
<path d="M2060 1779 c-15 -28 -4 -38 15 -13 17 22 19 34 5 34 -5 0 -14 -9 -20
-21z"/>
<path d="M2142 1718 c-14 -14 -16 -108 -3 -108 5 0 12 -7 15 -16 4 -11 -8 -22
-47 -39 -28 -14 -61 -25 -72 -25 -33 0 -47 -15 -40 -41 8 -31 58 -62 110 -69
36 -4 40 -8 43 -35 1 -16 7 -47 13 -68 11 -43 4 -77 -16 -77 -8 0 -28 -8 -46
-19 -17 -10 -38 -17 -48 -14 -25 6 -71 -44 -71 -77 0 -35 32 -75 77 -99 l36
-18 45 46 c25 25 45 52 43 60 -1 7 2 10 8 7 6 -4 8 -20 4 -37 -3 -17 -1 -34 4
-38 6 -3 14 -19 20 -35 17 -53 33 -43 35 21 2 72 2 77 -6 136 -6 42 -3 52 24
91 31 46 37 66 20 66 -5 0 -12 11 -16 25 -7 27 -19 33 -27 13 -3 -7 -6 6 -6
28 -1 37 17 69 38 69 22 0 -25 106 -50 112 -20 6 -19 18 3 91 7 24 6 37 -2 47
-15 18 -71 20 -88 3z"/>
<path d="M2430 1226 c0 -27 -19 -77 -34 -87 -5 -4 -1 -17 8 -30 9 -13 16 -20
16 -15 0 5 9 1 20 -9 19 -17 21 -17 55 9 19 15 35 22 35 16 0 -13 70 -90 82
-90 12 0 10 68 -2 75 -21 13 -8 23 41 35 46 11 49 13 35 29 -9 10 -16 23 -16
29 0 33 -91 54 -145 33 -11 -5 -28 -4 -37 0 -10 5 -27 14 -38 19 -17 9 -20 7
-20 -14z"/>
<path d="M3560 1018 c0 -3 20 -44 45 -89 36 -67 45 -94 45 -134 0 -69 -35
-131 -94 -170 -25 -16 -91 -62 -145 -101 -60 -42 -119 -76 -148 -84 -26 -8
-91 -31 -143 -53 -89 -37 -102 -40 -200 -41 -109 -1 -162 10 -212 46 -18 13
-28 28 -28 45 0 36 -55 118 -96 143 -32 20 -94 43 -94 35 0 -3 22 -48 49 -102
27 -54 54 -116 60 -138 12 -46 31 -76 84 -134 46 -51 87 -73 200 -105 49 -14
92 -28 95 -30 11 -6 167 21 191 33 22 12 54 65 45 74 -4 3 4 20 16 37 12 17
24 29 27 26 3 -3 17 0 32 6 14 6 41 10 59 9 20 -1 32 3 32 11 0 10 2 10 9 0 6
-10 41 18 132 107 68 67 132 121 142 121 28 0 85 43 98 73 7 16 19 27 31 27
12 0 24 12 32 32 12 28 12 35 -2 56 -8 13 -25 27 -36 32 -12 4 -32 30 -46 56
-14 27 -30 52 -36 56 -7 5 -28 33 -49 63 -20 30 -42 55 -50 55 -8 0 -21 10
-29 22 -9 12 -16 20 -16 16z"/>
<path d="M2296 992 c-11 -2 -15 -7 -10 -11 5 -3 23 -27 41 -53 l32 -47 -66
-30 c-36 -17 -67 -31 -69 -31 -2 0 -13 9 -24 20 -29 29 -40 17 -40 -41 0 -60
25 -90 71 -87 17 1 33 6 35 10 3 4 10 8 16 8 6 0 4 -9 -4 -22 -8 -13 -20 -38
-26 -56 -10 -28 -8 -35 11 -53 28 -26 58 -21 158 30 l77 39 33 -22 c25 -16 46
-22 78 -20 24 2 47 7 50 12 3 5 13 11 22 14 10 4 18 22 21 45 4 31 0 42 -19
60 -12 12 -23 29 -23 38 0 21 -3 20 -41 -16 -26 -24 -38 -29 -58 -24 -27 7
-65 13 -90 14 -23 2 8 31 33 31 31 0 100 26 104 39 6 18 -19 71 -33 71 -8 0
-15 4 -17 10 -1 5 -23 11 -48 11 -32 2 -55 10 -80 29 -34 26 -91 40 -134 32z
m152 -244 c19 -19 14 -25 -20 -30 -18 -3 -42 -8 -53 -12 -14 -6 -10 2 13 23
36 34 43 36 60 19z"/>
<path d="M1932 941 c-18 -38 -27 -137 -13 -145 6 -4 11 -15 11 -25 0 -27 19
-38 82 -45 51 -5 58 -4 68 14 16 31 2 107 -27 141 -14 16 -44 43 -67 58 l-42
29 -12 -27z"/>
<path d="M1807 705 c-27 -56 -33 -139 -13 -170 9 -14 23 -25 31 -25 8 0 15 -4
15 -8 0 -4 12 -7 26 -7 39 2 54 38 47 112 -4 48 -12 69 -35 97 -16 20 -35 36
-42 36 -7 0 -20 -16 -29 -35z"/>
<path d="M2397 488 c3 -116 28 -218 54 -218 6 0 7 4 4 10 -3 6 -1 10 4 10 6 0
11 12 11 28 0 15 5 45 12 67 6 22 12 43 12 47 1 3 4 10 9 14 16 17 5 49 -32
85 -21 22 -47 39 -57 39 -17 0 -19 -8 -17 -82z"/>
<path d="M2200 531 c0 -5 4 -21 10 -35 8 -21 5 -31 -16 -55 -14 -17 -35 -33
-47 -37 -12 -3 -29 -12 -37 -19 -8 -7 -34 -19 -58 -26 -25 -7 -69 -35 -103
-63 -32 -28 -69 -60 -82 -71 -13 -11 -16 -14 -6 -7 28 22 113 27 149 9 21 -11
37 -13 48 -7 9 5 51 21 92 36 41 15 85 36 97 46 12 11 26 17 32 13 15 -9 81
16 81 31 0 7 4 14 10 16 5 2 11 22 12 46 2 50 -21 86 -72 113 -36 20 -110 26
-110 10z"/>
<path d="M1605 448 c-31 -18 -35 -28 -35 -109 0 -70 2 -77 28 -102 41 -39 108
-44 139 -10 13 13 23 32 23 42 0 18 30 56 52 64 22 8 -32 56 -76 68 -23 6 -52
22 -65 35 -26 27 -37 29 -66 12z"/>
</g>
</svg>
